# xmcd
#
# Track frame offsets: 
#        150
#        15656
#        34019
#        50688
#        70395
#        90631
#        105287
#        119565
#        133069
#        151634
#        171068
#        184585
#        198442
#        211826
#
# Disc length: 3076 seconds
#
# Revision: 0
# Processed by: cddbd v1.5.2PL0 Copyright (c) Steve Scherf et al.
# Submitted via: ExactAudioCopy v0.99pb4
#
DISCID=b60c020e
DTITLE=Hannes Kasehs - Linda's Blues
DYEAR=2009
DGENRE=Blues
TTITLE0=Sitting In My Backyard
TTITLE1=Not Cool Enough
TTITLE2=This Morning
TTITLE3=Crying Heart
TTITLE4=Stupid
TTITLE5=Blow Them Troubles Away
TTITLE6=Harem Blues
TTITLE7=I Don't Need A Friend Like You
TTITLE8=I Wish You Well
TTITLE9=Take The Risk
TTITLE10=Fat Belly
TTITLE11=Big Place
TTITLE12=Is It A Shame
TTITLE13=Linda's Blues
EXTD=
EXTT0=
EXTT1=
EXTT2=
EXTT3=
EXTT4=
EXTT5=
EXTT6=
EXTT7=
EXTT8=
EXTT9=
EXTT10=
EXTT11=
EXTT12=
EXTT13=
PLAYORDER=
